<?xml version="1.0" encoding="utf-8"?>
<!-- Generator: Adobe Illustrator 16.0.4, SVG Export Plug-In . SVG Version: 6.00 Build 0)  -->
<!DOCTYPE svg PUBLIC "-//W3C//DTD SVG 1.1//EN" "http://www.w3.org/Graphics/SVG/1.1/DTD/svg11.dtd">
<svg version="1.1" id="Layer_1" xmlns="http://www.w3.org/2000/svg" xmlns:xlink="http://www.w3.org/1999/xlink" x="0px" y="0px"
	 width="128px" height="112px" viewBox="0 0 128 112" enable-background="new 0 0 128 112" xml:space="preserve">
<path fill="#FFFFFF" d="M118.043,9.959C111.619,3.537,103.082,0,94,0S76.38,3.537,69.959,9.959c-2.401,2.4-4.398,5.098-5.959,8.008
	c-1.561-2.91-3.557-5.607-5.957-8.008C51.619,3.537,43.082,0,34,0S16.38,3.537,9.959,9.959C3.537,16.38,0,24.918,0,34
	s3.537,17.62,9.959,24.041l48.178,51.402C59.65,111.074,61.775,112,64,112s4.349-0.926,5.862-2.557l48.181-51.402
	C124.463,51.62,128,43.082,128,34S124.463,16.38,118.043,9.959z"/>
</svg>
