<?xml version="1.0" encoding="utf-8"?>
<!-- Generator: Adobe Illustrator 16.0.4, SVG Export Plug-In . SVG Version: 6.00 Build 0)  -->
<!DOCTYPE svg PUBLIC "-//W3C//DTD SVG 1.1//EN" "http://www.w3.org/Graphics/SVG/1.1/DTD/svg11.dtd">
<svg version="1.1" id="Layer_1" xmlns="http://www.w3.org/2000/svg" xmlns:xlink="http://www.w3.org/1999/xlink" x="0px" y="0px"
	 width="128px" height="128px" viewBox="0 0 128 128" enable-background="new 0 0 128 128" xml:space="preserve">
<path fill="#FFFFFF" d="M26.667,0.331c-2.386,6.936-3.213,14.463-1.079,21.038c-2.579,2.862-4.582,6.149-6.014,9.87
	c-3.819,12.07-2.887,27.489,5.475,36.819c2.937,3.219,6.922,5.867,11.936,7.941c5.014,2.075,11.459,3.398,19.339,3.972
	c-5.289,2.47-9.017,3.98-10.318,9.445c-5.899,3.942-13.073,3.001-18.271-1.285c-4.108-3-5.97-8.331-10.524-10.307
	c-0.286-0.287-1.182-0.499-2.686-0.643c-1.504-0.144-2.687,0.284-3.546,1.285c-0.43,0.429-0.398,0.888,0.103,1.389
	c3.448,2.805,6.767,5.777,8.711,9.343c1.863,3.863,3.79,6.692,5.796,8.481c5.564,3.759,13.025,5.716,19.557,3.328
	c-0.762,4.597,1.293,11.772-0.218,15.884c-0.573,1.146-1.393,2.149-2.468,3.008c-0.958,0.934-3.927,2.103-3.329,3.534
	c0.287,0.645,1.288,1.039,3.007,1.183c3.785-0.098,7.552-1.627,9.778-4.614c0.789-1.072,1.182-2.472,1.182-4.188V98.219
	c0-2.003,0.426-3.435,1.286-4.292c0.859-0.858,1.797-1.435,2.8-1.722v23.184c0,2.003-0.182,3.722-0.54,5.153
	s-0.678,2.435-0.964,3.007c-0.658,1.104-1.916,2.12-1.94,3.432c0,0.429,0.256,0.674,0.758,0.746
	c3.764-0.164,8.131-2.372,9.664-5.475c1.218-2.577,1.825-5.287,1.825-8.148v-22.76h4.729v22.76c0,2.861,0.649,5.571,1.939,8.148
	c1.29,2.576,3.441,4.23,6.45,4.946c1.575,0.429,2.64,0.6,3.213,0.528c0.574-0.072,0.83-0.317,0.758-0.746
	c-0.344-1.3-1.064-2.413-1.825-3.432c-1.002-1.288-1.503-4.01-1.503-8.16V92.205c1.003,0.287,1.973,0.863,2.903,1.722
	c0.932,0.857,1.389,2.289,1.389,4.292v17.595c0,1.717,0.394,3.116,1.183,4.188c2.396,3.046,6.004,4.591,9.778,4.614
	c1.719-0.144,2.72-0.538,3.007-1.183c0.287-0.644,0.074-1.178-0.643-1.606c-0.718-0.429-1.611-1.07-2.686-1.928
	c-1.074-0.858-1.894-1.862-2.468-3.008c-0.643-7.382-0.018-15.296-0.539-22.759c-1.033-8.146-4.168-10.825-10.422-13.944
	c7.45-0.572,13.575-1.939,18.375-4.086c14.347-6.971,18.314-17.748,18.375-32.193c-0.227-9.297-2.909-17.407-9.032-23.62
	c0.859-3.291,1.116-6.717,0.757-10.295c-0.358-3.578-1.114-6.801-2.261-9.664c-5.3,0.286-9.742,1.353-13.324,3.213
	c-3.581,1.861-6.161,3.44-7.736,4.729C73.71,5.391,60.119,5.374,47.945,8.698C41.715,3.603,33.995,0.764,26.667,0.331z"/>
</svg>
