<?xml version="1.0" encoding="utf-8"?>
<!-- Generator: Adobe Illustrator 16.0.4, SVG Export Plug-In . SVG Version: 6.00 Build 0)  -->
<!DOCTYPE svg PUBLIC "-//W3C//DTD SVG 1.1//EN" "http://www.w3.org/Graphics/SVG/1.1/DTD/svg11.dtd">
<svg version="1.1" id="Layer_1" xmlns="http://www.w3.org/2000/svg" xmlns:xlink="http://www.w3.org/1999/xlink" x="0px" y="0px"
	 width="128px" height="128px" viewBox="0 0 128 128" enable-background="new 0 0 128 128" xml:space="preserve">
<path fill="#FFFFFF" d="M112,52c0,0,11.125-3.875,15.998-12c-6.371,0.875-13.666-0.666-15.998-3.998V16c0-4.42-3.582-8-8-8H40.251
	c0,0,8-2.668,7.25-5c-0.956-2.977-9.667,0.75-16.834,3.75c1.917-2.084,3.417-4.168,3.167-6.75
	c-5.069,1.285-9.365,5.703-11.343,8.145c-0.027,0.006-0.056,0.008-0.082,0.014c0.594-1.154,2.061-4.117,1.675-5.658
	C20.917,4.166,16,8,16,16v76c0,8-8,12-16,4c4,12,12,16,24,16h13.674l-1.634,11.434c-0.312,2.186,1.207,4.213,3.394,4.525
	c0.192,0.027,0.383,0.041,0.571,0.041c1.958,0,3.67-1.441,3.955-3.436L45.755,112h27.122l3.242,12.969
	c0.455,1.818,2.086,3.031,3.878,3.031c0.321,0,0.647-0.039,0.973-0.121c2.144-0.535,3.446-2.707,2.911-4.85L81.123,112H104
	c4.418,0,8-3.582,8-8V64c4.333,0,10.667-1.168,16-8C121.668,55.666,112,52,112,52z M64,40c0-4.42,3.582-8,8-8s8,3.58,8,8
	c0,4.418-3.582,8-8,8S64,44.418,64,40z"/>
</svg>
